<mxfile host="app.diagrams.net" agent="Mozilla/5.0 (X11; Ubuntu; Linux x86_64; rv:139.0) Gecko/20100101 Firefox/139.0" version="27.2.0">
  <diagram name="Page-1" id="vSZzm0c0lSDc5pFVxaaF">
    <mxGraphModel dx="1371" dy="887" grid="1" gridSize="10" guides="1" tooltips="1" connect="1" arrows="1" fold="1" page="1" pageScale="1" pageWidth="850" pageHeight="1100" math="0" shadow="0">
      <root>
        <mxCell id="0" />
        <mxCell id="1" parent="0" />
        <mxCell id="fo6R8_58uPIGh2nn-8rE-60" style="edgeStyle=orthogonalEdgeStyle;rounded=0;orthogonalLoop=1;jettySize=auto;html=1;entryX=1;entryY=0.5;entryDx=0;entryDy=0;fillColor=#dae8fc;strokeColor=#6c8ebf;dashed=1;" parent="1" target="uJQRAGQsD4uY7syrl0k8-3" edge="1">
          <mxGeometry relative="1" as="geometry">
            <mxPoint x="720" y="190" as="sourcePoint" />
            <Array as="points">
              <mxPoint x="720" y="336" />
            </Array>
            <mxPoint x="556" y="339" as="targetPoint" />
          </mxGeometry>
        </mxCell>
        <mxCell id="fo6R8_58uPIGh2nn-8rE-26" value="" style="rounded=0;whiteSpace=wrap;html=1;fillColor=none;strokeColor=#6c8ebf;dashed=1;dashPattern=8 8;" parent="1" vertex="1">
          <mxGeometry x="630" y="49" width="181" height="138" as="geometry" />
        </mxCell>
        <mxCell id="fo6R8_58uPIGh2nn-8rE-34" style="edgeStyle=orthogonalEdgeStyle;rounded=0;orthogonalLoop=1;jettySize=auto;html=1;entryX=0;entryY=0.5;entryDx=0;entryDy=0;fillColor=#dae8fc;strokeColor=#6c8ebf;" parent="1" source="fo6R8_58uPIGh2nn-8rE-17" target="fo6R8_58uPIGh2nn-8rE-26" edge="1">
          <mxGeometry relative="1" as="geometry" />
        </mxCell>
        <mxCell id="fo6R8_58uPIGh2nn-8rE-44" style="edgeStyle=orthogonalEdgeStyle;rounded=0;orthogonalLoop=1;jettySize=auto;html=1;entryX=0.5;entryY=0;entryDx=0;entryDy=0;fillColor=#dae8fc;strokeColor=#6c8ebf;startArrow=classic;startFill=1;" parent="1" edge="1">
          <mxGeometry relative="1" as="geometry">
            <mxPoint x="523.5" y="187" as="sourcePoint" />
            <mxPoint x="523.5" y="270" as="targetPoint" />
          </mxGeometry>
        </mxCell>
        <mxCell id="fo6R8_58uPIGh2nn-8rE-17" value="" style="rounded=0;whiteSpace=wrap;html=1;fillColor=none;strokeColor=#6c8ebf;dashed=1;dashPattern=8 8;" parent="1" vertex="1">
          <mxGeometry x="375" y="49" width="181" height="138" as="geometry" />
        </mxCell>
        <mxCell id="aPNDeGo1sduExx9jBJkK-4" value="Some Entity&lt;br&gt;«Object»" style="rounded=0;whiteSpace=wrap;html=1;fillColor=#dae8fc;strokeColor=#6c8ebf;" parent="1" vertex="1">
          <mxGeometry x="698" y="93" width="100" height="50" as="geometry" />
        </mxCell>
        <mxCell id="fo6R8_58uPIGh2nn-8rE-5" value="" style="rhombus;whiteSpace=wrap;html=1;fillColor=#f8cecc;strokeColor=#b85450;" parent="1" vertex="1">
          <mxGeometry x="13" y="348" width="20" height="20" as="geometry" />
        </mxCell>
        <mxCell id="fo6R8_58uPIGh2nn-8rE-8" value="external token" style="text;html=1;align=left;verticalAlign=middle;whiteSpace=wrap;rounded=0;" parent="1" vertex="1">
          <mxGeometry x="38" y="348" width="118" height="20" as="geometry" />
        </mxCell>
        <mxCell id="fo6R8_58uPIGh2nn-8rE-18" value="&lt;div align=&quot;center&quot;&gt;Microservice A&lt;/div&gt;" style="text;html=1;align=center;verticalAlign=middle;whiteSpace=wrap;rounded=0;fillColor=none;fontColor=#6C8EBF;fontStyle=1" parent="1" vertex="1">
          <mxGeometry x="375" y="49" width="100" height="19" as="geometry" />
        </mxCell>
        <mxCell id="fo6R8_58uPIGh2nn-8rE-27" value="&lt;div align=&quot;center&quot;&gt;Microservice B&lt;/div&gt;" style="text;html=1;align=center;verticalAlign=middle;whiteSpace=wrap;rounded=0;fillColor=none;fontColor=#6C8EBF;fontStyle=1" parent="1" vertex="1">
          <mxGeometry x="630" y="49" width="100" height="19" as="geometry" />
        </mxCell>
        <mxCell id="fo6R8_58uPIGh2nn-8rE-32" style="edgeStyle=orthogonalEdgeStyle;rounded=0;orthogonalLoop=1;jettySize=auto;html=1;entryX=0;entryY=0.5;entryDx=0;entryDy=0;fillColor=#dae8fc;strokeColor=#6c8ebf;" parent="1" target="fo6R8_58uPIGh2nn-8rE-17" edge="1">
          <mxGeometry relative="1" as="geometry">
            <mxPoint x="304" y="118" as="sourcePoint" />
          </mxGeometry>
        </mxCell>
        <mxCell id="fo6R8_58uPIGh2nn-8rE-30" value="" style="endArrow=classic;html=1;rounded=0;entryX=0;entryY=0.5;entryDx=0;entryDy=0;exitX=1;exitY=0.5;exitDx=0;exitDy=0;fillColor=#dae8fc;strokeColor=#6c8ebf;" parent="1" source="fo6R8_58uPIGh2nn-8rE-36" edge="1">
          <mxGeometry width="50" height="50" relative="1" as="geometry">
            <mxPoint x="134" y="118" as="sourcePoint" />
            <mxPoint x="194" y="118" as="targetPoint" />
          </mxGeometry>
        </mxCell>
        <mxCell id="fo6R8_58uPIGh2nn-8rE-31" value="" style="rhombus;whiteSpace=wrap;html=1;fillColor=#f8cecc;strokeColor=#b85450;direction=south;" parent="1" vertex="1">
          <mxGeometry x="143" y="93" width="20" height="20" as="geometry" />
        </mxCell>
        <mxCell id="fo6R8_58uPIGh2nn-8rE-33" value="" style="rhombus;whiteSpace=wrap;html=1;fillColor=#f8cecc;strokeColor=#b85450;" parent="1" vertex="1">
          <mxGeometry x="316" y="93" width="20" height="20" as="geometry" />
        </mxCell>
        <mxCell id="fo6R8_58uPIGh2nn-8rE-36" value="Some Client&lt;br&gt;«Subject»" style="rounded=0;whiteSpace=wrap;html=1;fillColor=#dae8fc;strokeColor=#6c8ebf;" parent="1" vertex="1">
          <mxGeometry x="14" y="93" width="100" height="50" as="geometry" />
        </mxCell>
        <mxCell id="fo6R8_58uPIGh2nn-8rE-38" value="new token" style="text;html=1;align=left;verticalAlign=middle;whiteSpace=wrap;rounded=0;" parent="1" vertex="1">
          <mxGeometry x="38" y="377" width="145" height="20" as="geometry" />
        </mxCell>
        <mxCell id="fo6R8_58uPIGh2nn-8rE-45" value="" style="rhombus;whiteSpace=wrap;html=1;fillColor=#f8cecc;strokeColor=#b85450;" parent="1" vertex="1">
          <mxGeometry x="498" y="200" width="20" height="20" as="geometry" />
        </mxCell>
        <mxCell id="fo6R8_58uPIGh2nn-8rE-46" value="" style="rhombus;whiteSpace=wrap;html=1;fillColor=#fff2cc;strokeColor=#d6b656;" parent="1" vertex="1">
          <mxGeometry x="13" y="377" width="20" height="20" as="geometry" />
        </mxCell>
        <mxCell id="fo6R8_58uPIGh2nn-8rE-47" value="" style="rhombus;whiteSpace=wrap;html=1;fillColor=#fff2cc;strokeColor=#d6b656;" parent="1" vertex="1">
          <mxGeometry x="532" y="240" width="20" height="20" as="geometry" />
        </mxCell>
        <mxCell id="fo6R8_58uPIGh2nn-8rE-49" value="" style="endArrow=open;html=1;rounded=0;endFill=0;" parent="1" edge="1">
          <mxGeometry width="50" height="50" relative="1" as="geometry">
            <mxPoint x="167" y="102.97" as="sourcePoint" />
            <mxPoint x="182" y="102.97" as="targetPoint" />
          </mxGeometry>
        </mxCell>
        <mxCell id="fo6R8_58uPIGh2nn-8rE-50" value="" style="endArrow=open;html=1;rounded=0;endFill=0;" parent="1" edge="1">
          <mxGeometry width="50" height="50" relative="1" as="geometry">
            <mxPoint x="340" y="102.84" as="sourcePoint" />
            <mxPoint x="355" y="102.84" as="targetPoint" />
          </mxGeometry>
        </mxCell>
        <mxCell id="fo6R8_58uPIGh2nn-8rE-51" value="" style="endArrow=open;html=1;rounded=0;endFill=0;" parent="1" edge="1">
          <mxGeometry width="50" height="50" relative="1" as="geometry">
            <mxPoint x="507.94" y="225" as="sourcePoint" />
            <mxPoint x="507.94" y="240" as="targetPoint" />
          </mxGeometry>
        </mxCell>
        <mxCell id="fo6R8_58uPIGh2nn-8rE-52" value="" style="endArrow=open;html=1;rounded=0;endFill=0;" parent="1" edge="1">
          <mxGeometry width="50" height="50" relative="1" as="geometry">
            <mxPoint x="541.94" y="235" as="sourcePoint" />
            <mxPoint x="541.94" y="220" as="targetPoint" />
          </mxGeometry>
        </mxCell>
        <mxCell id="fo6R8_58uPIGh2nn-8rE-53" value="" style="rhombus;whiteSpace=wrap;html=1;fillColor=#fff2cc;strokeColor=#d6b656;" parent="1" vertex="1">
          <mxGeometry x="570" y="93" width="20" height="20" as="geometry" />
        </mxCell>
        <mxCell id="fo6R8_58uPIGh2nn-8rE-54" value="" style="endArrow=open;html=1;rounded=0;endFill=0;" parent="1" edge="1">
          <mxGeometry width="50" height="50" relative="1" as="geometry">
            <mxPoint x="599" y="102.86" as="sourcePoint" />
            <mxPoint x="614" y="102.86" as="targetPoint" />
          </mxGeometry>
        </mxCell>
        <mxCell id="fo6R8_58uPIGh2nn-8rE-55" style="edgeStyle=orthogonalEdgeStyle;rounded=0;orthogonalLoop=1;jettySize=auto;html=1;entryX=0.5;entryY=0;entryDx=0;entryDy=0;fillColor=#dae8fc;strokeColor=#6c8ebf;startArrow=classic;startFill=1;dashed=1;" parent="1" edge="1">
          <mxGeometry relative="1" as="geometry">
            <mxPoint x="409.5" y="187" as="sourcePoint" />
            <mxPoint x="409.5" y="270" as="targetPoint" />
          </mxGeometry>
        </mxCell>
        <mxCell id="fo6R8_58uPIGh2nn-8rE-56" value="" style="rhombus;whiteSpace=wrap;html=1;fillColor=#f8cecc;strokeColor=#b85450;" parent="1" vertex="1">
          <mxGeometry x="385.5" y="201" width="20" height="20" as="geometry" />
        </mxCell>
        <mxCell id="fo6R8_58uPIGh2nn-8rE-57" value="" style="endArrow=open;html=1;rounded=0;endFill=0;" parent="1" edge="1">
          <mxGeometry width="50" height="50" relative="1" as="geometry">
            <mxPoint x="395.44000000000005" y="226" as="sourcePoint" />
            <mxPoint x="395.44000000000005" y="241" as="targetPoint" />
          </mxGeometry>
        </mxCell>
        <mxCell id="fo6R8_58uPIGh2nn-8rE-58" value="external token verification" style="shape=callout;whiteSpace=wrap;html=1;perimeter=calloutPerimeter;base=16;size=30;position=0.75;position2=1;flipV=1;fillColor=#ffe6cc;strokeColor=#d79b00;" parent="1" vertex="1">
          <mxGeometry x="257" y="220" width="120" height="70" as="geometry" />
        </mxCell>
        <mxCell id="fo6R8_58uPIGh2nn-8rE-59" value="issuance of the new token" style="shape=callout;whiteSpace=wrap;html=1;perimeter=calloutPerimeter;base=20;size=40;position=0.67;position2=0.9;flipV=0;fillColor=#ffe6cc;strokeColor=#d79b00;" parent="1" vertex="1">
          <mxGeometry x="405.5" y="131" width="120" height="69" as="geometry" />
        </mxCell>
        <mxCell id="fo6R8_58uPIGh2nn-8rE-61" value="" style="rhombus;whiteSpace=wrap;html=1;fillColor=#fff2cc;strokeColor=#d6b656;flipV=1;" parent="1" vertex="1">
          <mxGeometry x="693" y="209" width="20" height="20" as="geometry" />
        </mxCell>
        <mxCell id="fo6R8_58uPIGh2nn-8rE-62" value="" style="endArrow=open;html=1;rounded=0;endFill=0;" parent="1" edge="1">
          <mxGeometry width="50" height="50" relative="1" as="geometry">
            <mxPoint x="702.94" y="232.99999999999977" as="sourcePoint" />
            <mxPoint x="702.94" y="247.99999999999977" as="targetPoint" />
          </mxGeometry>
        </mxCell>
        <mxCell id="fo6R8_58uPIGh2nn-8rE-63" value="token verification" style="shape=callout;whiteSpace=wrap;html=1;perimeter=calloutPerimeter;base=16;size=30;position=0.75;position2=1;flipV=1;fillColor=#ffe6cc;strokeColor=#d79b00;" parent="1" vertex="1">
          <mxGeometry x="573" y="240" width="120" height="70" as="geometry" />
        </mxCell>
        <mxCell id="fo6R8_58uPIGh2nn-8rE-64" value="1" style="ellipse;whiteSpace=wrap;html=1;aspect=fixed;" parent="1" vertex="1">
          <mxGeometry x="143" y="68" width="20" height="20" as="geometry" />
        </mxCell>
        <mxCell id="fo6R8_58uPIGh2nn-8rE-65" value="2" style="ellipse;whiteSpace=wrap;html=1;aspect=fixed;" parent="1" vertex="1">
          <mxGeometry x="316" y="68" width="20" height="20" as="geometry" />
        </mxCell>
        <mxCell id="fo6R8_58uPIGh2nn-8rE-66" value="3" style="ellipse;whiteSpace=wrap;html=1;aspect=fixed;" parent="1" vertex="1">
          <mxGeometry x="257" y="240" width="20" height="20" as="geometry" />
        </mxCell>
        <mxCell id="fo6R8_58uPIGh2nn-8rE-67" value="4" style="ellipse;whiteSpace=wrap;html=1;aspect=fixed;" parent="1" vertex="1">
          <mxGeometry x="415" y="150" width="20" height="20" as="geometry" />
        </mxCell>
        <mxCell id="fo6R8_58uPIGh2nn-8rE-68" value="5" style="ellipse;whiteSpace=wrap;html=1;aspect=fixed;" parent="1" vertex="1">
          <mxGeometry x="590" y="73" width="20" height="20" as="geometry" />
        </mxCell>
        <mxCell id="fo6R8_58uPIGh2nn-8rE-69" value="6" style="ellipse;whiteSpace=wrap;html=1;aspect=fixed;" parent="1" vertex="1">
          <mxGeometry x="580" y="257" width="20" height="20" as="geometry" />
        </mxCell>
        <mxCell id="uJQRAGQsD4uY7syrl0k8-1" value="&lt;b&gt;Edge-Proxy&lt;/b&gt;" style="rounded=1;whiteSpace=wrap;html=1;fillColor=#d5e8d4;strokeColor=#82b366;arcSize=4;" vertex="1" parent="1">
          <mxGeometry x="194" y="49" width="110" height="138" as="geometry" />
        </mxCell>
        <mxCell id="uJQRAGQsD4uY7syrl0k8-2" value="&lt;b&gt;Verifier&lt;/b&gt;" style="rounded=1;whiteSpace=wrap;html=1;fillColor=#d5e8d4;strokeColor=#82b366;arcSize=4;" vertex="1" parent="1">
          <mxGeometry x="385.5" y="271" width="74.5" height="129" as="geometry" />
        </mxCell>
        <mxCell id="uJQRAGQsD4uY7syrl0k8-3" value="&lt;b&gt;STS&lt;/b&gt;" style="rounded=1;whiteSpace=wrap;html=1;fillColor=#d5e8d4;strokeColor=#82b366;arcSize=4;" vertex="1" parent="1">
          <mxGeometry x="475" y="272" width="75" height="128" as="geometry" />
        </mxCell>
        <mxCell id="uJQRAGQsD4uY7syrl0k8-5" value="" style="curved=1;endArrow=none;html=1;rounded=0;dashed=1;dashPattern=8 8;startFill=0;fillColor=#f8cecc;strokeColor=#b85450;startSize=9;endSize=8;strokeWidth=2;" edge="1" parent="1">
          <mxGeometry width="50" height="50" relative="1" as="geometry">
            <mxPoint x="101" y="7" as="sourcePoint" />
            <mxPoint x="101" y="277" as="targetPoint" />
            <Array as="points">
              <mxPoint x="131" y="77" />
              <mxPoint x="141" y="147" />
              <mxPoint x="121" y="249" />
            </Array>
          </mxGeometry>
        </mxCell>
      </root>
    </mxGraphModel>
  </diagram>
</mxfile>
